<svg xmlns="http://www.w3.org/2000/svg" viewBox="0 0 1600 1000" width="100%" height="100%">
  <defs>
    <!-- Parchment Texture -->
    <filter id="parchment">
      <feTurbulence type="fractalNoise" baseFrequency="0.04" numOctaves="5" result="noise" />
      <feColorMatrix type="matrix" values="1 0 0 0 0.9  0 0.9 0 0 0.85  0 0 0.8 0 0.75  0 0 0 0.3 0" in="noise" result="coloredNoise" />
      <feBlend in="SourceGraphic" in2="coloredNoise" mode="multiply" />
    </filter>
    
    <!-- Aged Ink Effect -->
    <filter id="aged-ink">
      <feTurbulence type="fractalNoise" baseFrequency="0.08" numOctaves="3" result="noise" />
      <feDisplacementMap in="SourceGraphic" in2="noise" scale="1.5" xChannelSelector="R" yChannelSelector="G" />
    </filter>
    
    <!-- Glow for Territories -->
    <filter id="territory-glow">
      <feGaussianBlur stdDeviation="3" result="blur" />
      <feMerge>
        <feMergeNode in="blur" />
        <feMergeNode in="SourceGraphic" />
      </feMerge>
    </filter>

    <!-- Rhumb Line Pattern -->
    <pattern id="rhumb" width="200" height="200" patternUnits="userSpaceOnUse">
      <line x1="100" y1="100" x2="300" y2="100" stroke="#8B7355" stroke-width="0.3" opacity="0.3" />
      <line x1="100" y1="100" x2="100" y2="300" stroke="#8B7355" stroke-width="0.3" opacity="0.3" />
      <line x1="100" y1="100" x2="300" y2="300" stroke="#8B7355" stroke-width="0.3" opacity="0.3" />
      <line x1="100" y1="100" x2="0" y2="300" stroke="#8B7355" stroke-width="0.3" opacity="0.3" />
      <line x1="100" y1="100" x2="300" y2="0" stroke="#8B7355" stroke-width="0.3" opacity="0.3" />
      <line x1="100" y1="100" x2="0" y2="0" stroke="#8B7355" stroke-width="0.3" opacity="0.3" />
    </pattern>

    <!-- Hachure Pattern for Coastlines -->
    <pattern id="hachure" width="20" height="20" patternUnits="userSpaceOnUse">
      <line x1="0" y1="0" x2="10" y2="10" stroke="#5C4033" stroke-width="0.5" opacity="0.4" />
    </pattern>
  </defs>

  <!-- Background Ocean -->
  <rect width="1600" height="1000" fill="#D4C4A8" filter="url(#parchment)" />
  
  <!-- Ocean Texture / Waves -->
  <g opacity="0.15" stroke="#8B7355" fill="none" stroke-width="0.5">
    <!-- Wave patterns across empty ocean -->
    <path d="M 50,100 Q 70,90 90,100 T 130,100" />
    <path d="M 150,150 Q 170,140 190,150 T 230,150" />
    <path d="M 1400,800 Q 1420,790 1440,800 T 1480,800" />
    <path d="M 1350,850 Q 1370,840 1390,850 T 1430,850" />
    <path d="M 100,850 Q 120,840 140,850 T 180,850" />
    <path d="M 1450,200 Q 1470,190 1490,200 T 1530,200" />
  </g>

  <!-- Rhumb Lines radiating from center point -->
  <g transform="translate(800, 500)">
    <rect x="-800" y="-500" width="1600" height="1000" fill="url(#rhumb)" />
    
    <!-- Compass Rose -->
    <g transform="scale(2.5)">
      <!-- Outer ring -->
      <circle cx="0" cy="0" r="50" fill="none" stroke="#3D2B1F" stroke-width="1.5" />
      <circle cx="0" cy="0" r="45" fill="none" stroke="#3D2B1F" stroke-width="0.5" />
      <circle cx="0" cy="0" r="55" fill="none" stroke="#3D2B1F" stroke-width="0.3" />
      
      <!-- Cardinal Points -->
      <polygon points="0,-55 8,-10 0,0 -8,-10" fill="#3D2B1F" />
      <polygon points="0,55 8,10 0,0 -8,10" fill="#3D2B1F" />
      <polygon points="55,0 10,8 0,0 10,-8" fill="#3D2B1F" />
      <polygon points="-55,0 -10,8 0,0 -10,-8" fill="#3D2B1F" />
      
      <!-- Intercardinal Points -->
      <polygon points="0,-55 5,-15 0,0" fill="#6B4226" />
      <polygon points="55,0 15,5 0,0" fill="#6B4226" />
      <polygon points="0,55 -5,15 0,0" fill="#6B4226" />
      <polygon points="-55,0 -15,-5 0,0" fill="#6B4226" />
      
      <!-- Center ornament -->
      <circle cx="0" cy="0" r="3" fill="#D4C4A8" stroke="#3D2B1F" stroke-width="0.5" />
      
      <!-- Labels -->
      <text x="0" y="-62" text-anchor="middle" font-family="serif" font-size="8" fill="#3D2B1F" font-style="italic">N</text>
      <text x="0" y="72" text-anchor="middle" font-family="serif" font-size="8" fill="#3D2B1F" font-style="italic">S</text>
      <text x="68" y="3" text-anchor="middle" font-family="serif" font-size="8" fill="#3D2B1F" font-style="italic">E</text>
      <text x="-68" y="3" text-anchor="middle" font-family="serif" font-size="8" fill="#3D2B1F" font-style="italic">W</text>
    </g>
  </g>

  <!-- THE HALF-CURVE (The Arc Itself) -->
  <path d="M 200,600 Q 800,200 1400,600" 
        fill="none" 
        stroke="#3D2B1F" 
        stroke-width="2.5" 
        stroke-dasharray="8,4" 
        opacity="0.6" />
  
  <!-- Arc Label -->
  <text x="800" y="430" text-anchor="middle" font-family="serif" font-size="18" fill="#3D2B1F" font-style="italic" letter-spacing="8" filter="url(#aged-ink)">
    THE HALF-CURVE ARCHIPELAGO
  </text>
  <text x="800" y="450" text-anchor="middle" font-family="serif" font-size="10" fill="#6B4226" font-style="italic">
    (Surveyed by impossible means · Plate № 404)
  </text>

  <!-- ============================================ -->
  <!-- REGION 1: SOFT DOOM EXPANSE                  -->
  <!-- ============================================ -->
  <g class="territory" data-region="soft-doom" transform="translate(280, 480)">
    <!-- Contour Lines (Topography) -->
    <path d="M 0,0 C 20,-60 80,-80 120,-40 C 160,0 140,60 90,70 C 40,80 -10,40 0,0 Z" 
          fill="rgba(180,160,130,0.3)" stroke="#5C4033" stroke-width="0.8" filter="url(#aged-ink)" />
    <path d="M 15,-10 C 30,-50 75,-65 105,-35 C 135,-5 120,45 80,55 C 40,65 5,35 15,-10 Z" 
          fill="none" stroke="#5C4033" stroke-width="0.5" opacity="0.5" />
    <path d="M 30,-20 C 40,-40 65,-50 85,-30 C 105,-10 95,30 65,40 C 35,50 20,25 30,-20 Z" 
          fill="none" stroke="#5C4033" stroke-width="0.3" opacity="0.3" />
    
    <!-- Hachure marks along the coast -->
    <g stroke="#5C4033" stroke-width="0.4" opacity="0.4">
      <line x1="-5" y1="10" x2="5" y2="15" />
      <line x1="-2" y1="30" x2="8" y2="35" />
      <line x1="5" y1="50" x2="15" y2="55" />
      <line x1="20" y1="65" x2="30" y2="70" />
      <line x1="50" y1="75" x2="60" y2="80" />
      <line x1="80" y1="72" x2="90" y2="77" />
      <line x1="110" y1="55" x2="120" y2="60" />
      <line x1="130" y1="30" x2="140" y2="35" />
      <line x1="135" y1="5" x2="145" y2="10" />
      <line x1="120" y1="-20" x2="130" y2="-15" />
    </g>
    
    <!-- Territory Label -->
    <text x="60" y="15" text-anchor="middle" font-family="serif" font-size="11" fill="#3D2B1F" font-weight="bold" letter-spacing="2">
      SOFT DOOM
    </text>
    <text x="60" y="30" text-anchor="middle" font-family="serif" font-size="8" fill="#6B4226" font-style="italic" letter-spacing="1">
      EXPANSE
    </text>
    
    <!-- Small Settlement Marker -->
    <circle cx="60" cy="40" r="2" fill="#3D2B1F" />
    <text x="65" y="43" font-family="serif" font-size="6" fill="#6B4226" font-style="italic">Ruins</text>
    
    <!-- Flag Marker -->
    <g transform="translate(50, -15) scale(0.6)">
      <rect x="0" y="0" width="12" height="8" fill="#0B0C10" stroke="#3D2B1F" stroke-width="0.5" />
      <rect x="4" y="0" width="4" height="8" fill="#45A29E" />
      <rect x="8" y="0" width="4" height="8" fill="#F3EED9" />
    </g>
  </g>

  <!-- ============================================ -->
  <!-- REGION 2: CONCRETE & CLOUD PREFECTURE        -->
  <!-- ============================================ -->
  <g class="territory" data-region="concrete-cloud" transform="translate(520, 430)">
    <!-- Contour Lines -->
    <path d="M 0,0 C 30,-70 100,-90 150,-50 C 200,-10 180,50 130,80 C 80,110 20,70 0,0 Z" 
          fill="rgba(180,160,130,0.35)" stroke="#5C4033" stroke-width="1" filter="url(#aged-ink)" />
    <path d="M 20,-10 C 40,-55 90,-70 130,-40 C 170,-10 155,40 115,65 C 75,90 30,60 20,-10 Z" 
          fill="none" stroke="#5C4033" stroke-width="0.5" opacity="0.5" />
    <path d="M 40,-20 C 55,-45 85,-55 115,-30 C 145,-5 130,30 100,50 C 70,70 45,50 40,-20 Z" 
          fill="none" stroke="#5C4033" stroke-width="0.3" opacity="0.3" />
    
    <!-- Hachure marks -->
    <g stroke="#5C4033" stroke-width="0.4" opacity="0.4">
      <line x1="-5" y1="20" x2="5" y2="25" />
      <line x1="5" y1="50" x2="15" y2="55" />
      <line x1="25" y1="75" x2="35" y2="80" />
      <line x1="60" y1="95" x2="70" y2="100" />
      <line x1="100" y1="90" x2="110" y2="95" />
      <line x1="140" y1="70" x2="150" y2="75" />
      <line x1="170" y1="40" x2="180" y2="45" />
      <line x1="185" y1="10" x2="195" y2="15" />
      <line x1="180" y1="-20" x2="190" y2="-15" />
      <line x1="155" y1="-45" x2="165" y2="-40" />
      <line x1="115" y1="-60" x2="125" y2="-55" />
    </g>
    
    <!-- Territory Label -->
    <text x="90" y="10" text-anchor="middle" font-family="serif" font-size="12" fill="#3D2B1F" font-weight="bold" letter-spacing="3">
      CONCRETE
    </text>
    <text x="90" y="25" text-anchor="middle" font-family="serif" font-size="8" fill="#6B4226" font-style="italic" letter-spacing="2">
      &amp; CLOUD
    </text>
    <text x="90" y="38" text-anchor="middle" font-family="serif" font-size="7" fill="#6B4226" font-style="italic">
      PREFECTURE
    </text>
    
    <!-- Administrative Building Icon -->
    <g transform="translate(80, 55)">
      <rect x="-8" y="-8" width="16" height="12" fill="none" stroke="#3D2B1F" stroke-width="0.8" />
      <rect x="-4" y="-4" width="8" height="8" fill="rgba(61,43,31,0.2)" />
      <text x="0" y="12" text-anchor="middle" font-family="serif" font-size="5" fill="#3D2B1F">ADMIN</text>
    </g>
    
    <!-- Flag Marker -->
    <g transform="translate(70, -20) scale(0.6)">
      <rect x="0" y="0" width="12" height="8" fill="#0B0C10" stroke="#3D2B1F" stroke-width="0.5" />
      <rect x="4" y="0" width="4" height="8" fill="#45A29E" />
      <rect x="8" y="0" width="4" height="8" fill="#F3EED9" />
    </g>
  </g>

  <!-- ============================================ -->
  <!-- REGION 3: CANDY WRAPPER BADLANDS             -->
  <!-- ============================================ -->
  <g class="territory" data-region="candy-wrapper" transform="translate(780, 460)">
    <!-- Contour Lines -->
    <path d="M 0,0 C 15,-50 60,-70 100,-40 C 140,-10 130,50 80,70 C 30,90 -10,40 0,0 Z" 
          fill="rgba(200,170,140,0.25)" stroke="#8B6914" stroke-width="0.8" stroke-dasharray="3,2" filter="url(#aged-ink)" />
    <path d="M 15,-10 C 25,-40 55,-55 85,-35 C 115,-15 110,35 70,55 C 30,75 5,35 15,-10 Z" 
          fill="none" stroke="#8B6914" stroke-width="0.4" opacity="0.4" />
    
    <!-- Unstable Territory Markers -->
    <g stroke="#8B6914" stroke-width="0.3" opacity="0.5">
      <line x1="20" y1="60" x2="28" y2="64" />
      <line x1="50" y1="70" x2="58" y2="74" />
      <line x1="80" y1="65" x2="88" y2="69" />
      <line x1="110" y1="45" x2="118" y2="49" />
      <line x1="125" y1="15" x2="133" y2="19" />
    </g>
    
    <!-- Territory Label -->
    <text x="60" y="15" text-anchor="middle" font-family="serif" font-size="11" fill="#8B6914" font-weight="bold" letter-spacing="2">
      CANDY
    </text>
    <text x="60" y="28" text-anchor="middle" font-family="serif" font-size="8" fill="#8B6914" font-style="italic" letter-spacing="1">
      WRAPPER
    </text>
    <text x="60" y="40" text-anchor="middle" font-family="serif" font-size="7" fill="#A0522D" font-style="italic">
      BADLANDS
    </text>
    
    <!-- Warning Symbol -->
    <g transform="translate(55, 52)">
      <polygon points="0,-6 6,6 -6,6" fill="none" stroke="#8B6914" stroke-width="0.8" />
      <text x="0" y="2" text-anchor="middle" font-family="serif" font-size="5" fill="#8B6914">!</text>
      <text x="0" y="14" text-anchor="middle" font-family="serif" font-size="4" fill="#8B6914" font-style="italic">VOLATILE</text>
    </g>
    
    <!-- Flag Marker -->
    <g transform="translate(45, -18) scale(0.6)">
      <rect x="0" y="0" width="12" height="8" fill="#0B0C10" stroke="#3D2B1F" stroke-width="0.5" />
      <rect x="4" y="0" width="4" height="8" fill="#45A29E" />
      <rect x="8" y="0" width="4" height="8" fill="#F3EED9" />
    </g>
  </g>

  <!-- ============================================ -->
  <!-- REGION 4: SILENT TRANSIT CORRIDOR            -->
  <!-- ============================================ -->
  <g class="territory" data-region="silent-transit" transform="translate(980, 500)">
    <!-- Contour Lines -->
    <path d="M 0,0 C 25,-60 70,-50 100,-20 C 130,10 120,60 70,70 C 20,80 -15,40 0,0 Z" 
          fill="rgba(140,130,120,0.2)" stroke="#4A4A4A" stroke-width="0.8" filter="url(#aged-ink)" />
    <path d="M 15,-10 C 30,-45 60,-40 80,-15 C 100,10 95,45 60,55 C 25,65 5,35 15,-10 Z" 
          fill="none" stroke="#4A4A4A" stroke-width="0.4" opacity="0.4" />
    
    <!-- Hachure marks -->
    <g stroke="#4A4A4A" stroke-width="0.4" opacity="0.3">
      <line x1="-5" y1="15" x2="5" y2="20" />
      <line x1="10" y1="45" x2="20" y2="50" />
      <line x1="35" y1="65" x2="45" y2="70" />
      <line x1="65" y1="72" x2="75" y2="77" />
      <line x1="95" y1="55" x2="105" y2="60" />
      <line x1="115" y1="30" x2="125" y2="35" />
      <line x1="120" y1="5" x2="130" y2="10" />
    </g>
    
    <!-- Territory Label -->
    <text x="55" y="15" text-anchor="middle" font-family="serif" font-size="11" fill="#4A4A4A" font-weight="bold" letter-spacing="3">
      SILENT
    </text>
    <text x="55" y="28" text-anchor="middle" font-family="serif" font-size="8" fill="#4A4A4A" font-style="italic" letter-spacing="2">
      TRANSIT
    </text>
    <text x="55" y="40" text-anchor="middle" font-family="serif" font-size="7" fill="#666" font-style="italic">
      CORRIDOR
    </text>
    
    <!-- Path/Trail marking -->
    <path d="M 55,50 L 55,65" stroke="#4A4A4A" stroke-width="0.5" stroke-dasharray="2,2" />
    <text x="58" y="60" font-family="serif" font-size="5" fill="#666" font-style="italic">→ to Github</text>
    
    <!-- Flag Marker -->
    <g transform="translate(40, -20) scale(0.6)">
      <rect x="0" y="0" width="12" height="8" fill="#0B0C10" stroke="#3D2B1F" stroke-width="0.5" />
      <rect x="4" y="0" width="4" height="8" fill="#45A29E" />
      <rect x="8" y="0" width="4" height="8" fill="#F3EED9" />
    </g>
  </g>

  <!-- ============================================ -->
  <!-- REGION 5: EMBASSY ROW                        -->
  <!-- ============================================ -->
  <g class="territory" data-region="embassy" transform="translate(1180, 520)">
    <!-- Contour Lines -->
    <path d="M 0,0 C 15,-40 45,-50 70,-30 C 95,-10 85,30 55,45 C 25,60 0,30 0,0 Z" 
          fill="rgba(180,160,130,0.3)" stroke="#5C4033" stroke-width="1" filter="url(#aged-ink)" />
    
    <!-- Territory Label -->
    <text x="40" y="15" text-anchor="middle" font-family="serif" font-size="11" fill="#3D2B1F" font-weight="bold" letter-spacing="3">
      EMBASSY
    </text>
    <text x="40" y="28" text-anchor="middle" font-family="serif" font-size="9" fill="#6B4226" font-style="italic" letter-spacing="2">
      ROW
    </text>
    
    <!-- Multiple Flags indicating embassy complex -->
    <g transform="translate(15, -5) scale(0.5)">
      <rect x="0" y="0" width="12" height="8" fill="#0B0C10" stroke="#3D2B1F" stroke-width="0.5" />
      <rect x="4" y="0" width="4" height="8" fill="#45A29E" />
      <rect x="8" y="0" width="4" height="8" fill="#F3EED9" />
    </g>
    <g transform="translate(30, -10) scale(0.5)">
      <rect x="0" y="0" width="12" height="8" fill="#0B0C10" stroke="#3D2B1F" stroke-width="0.5" />
      <rect x="4" y="0" width="4" height="8" fill="#45A29E" />
      <rect x="8" y="0" width="4" height="8" fill="#F3EED9" />
    </g>
    <g transform="translate(45, -5) scale(0.5)">
      <rect x="0" y="0" width="12" height="8" fill="#0B0C10" stroke="#3D2B1F" stroke-width="0.5" />
      <rect x="4" y="0" width="4" height="8" fill="#45A29E" />
      <rect x="8" y="0" width="4" height="8" fill="#F3EED9" />
    </g>
    
    <!-- Form indicator -->
    <text x="40" y="48" text-anchor="middle" font-family="serif" font-size="6" fill="#6B4226" font-style="italic">
      Form I-404 Required
    </text>
  </g>

  <!-- ============================================ -->
  <!-- CARTOUCHE (Title Box)                        -->
  <!-- ============================================ -->
  <g transform="translate(50, 50)">
    <rect x="0" y="0" width="380" height="120" fill="#D4C4A8" stroke="#3D2B1F" stroke-width="2" opacity="0.95" />
    <rect x="5" y="5" width="370" height="110" fill="none" stroke="#3D2B1F" stroke-width="0.5" />
    <rect x="10" y="10" width="360" height="100" fill="none" stroke="#3D2B1F" stroke-width="0.3" />
    
    <text x="190" y="40" text-anchor="middle" font-family="serif" font-size="22" fill="#3D2B1F" font-weight="bold" letter-spacing="6">
      INTERFACE
    </text>
    <text x="190" y="58" text-anchor="middle" font-family="serif" font-size="10" fill="#6B4226" font-style="italic" letter-spacing="4">
      A NATION WITHOUT WEBSITE
    </text>
    <line x1="80" y1="70" x2="300" y2="70" stroke="#3D2B1F" stroke-width="0.5" />
    <text x="190" y="88" text-anchor="middle" font-family="serif" font-size="8" fill="#6B4226" font-style="italic">
      Surveyed by the Department of Digital Metaphysics
    </text>
    <text x="190" y="102" text-anchor="middle" font-family="serif" font-size="7" fill="#8B7355" font-style="italic">
      Scale: 1:0 · Distances are Emotional · All Borders Subject to Revision
    </text>
  </g>

  <!-- ============================================ -->
  <!-- SCALE BAR                                     -->
  <!-- ============================================ -->
  <g transform="translate(50, 880)">
    <text x="0" y="-5" font-family="serif" font-size="8" fill="#3D2B1F" font-style="italic">Scale of Uncertainty</text>
    <rect x="0" y="0" width="200" height="6" fill="none" stroke="#3D2B1F" stroke-width="0.8" />
    <rect x="0" y="0" width="50" height="6" fill="#3D2B1F" />
    <rect x="100" y="0" width="50" height="6" fill="#3D2B1F" />
    <line x1="0" y1="0" x2="0" y2="10" stroke="#3D2B1F" stroke-width="0.5" />
    <line x1="50" y1="0" x2="50" y2="10" stroke="#3D2B1F" stroke-width="0.5" />
    <line x1="100" y1="0" x2="100" y2="10" stroke="#3D2B1F" stroke-width="0.5" />
    <line x1="150" y1="0" x2="150" y2="10" stroke="#3D2B1F" stroke-width="0.5" />
    <line x1="200" y1="0" x2="200" y2="10" stroke="#3D2B1F" stroke-width="0.5" />
    <text x="0" y="18" text-anchor="middle" font-family="serif" font-size="6" fill="#6B4226">Void</text>
    <text x="50" y="18" text-anchor="middle" font-family="serif" font-size="6" fill="#6B4226">Whisper</text>
    <text x="100" y="18" text-anchor="middle" font-family="serif" font-size="6" fill="#6B4226">Signal</text>
    <text x="150" y="18" text-anchor="middle" font-family="serif" font-size="6" fill="#6B4226">Presence</text>
    <text x="200" y="18" text-anchor="middle" font-family="serif" font-size="6" fill="#6B4226">Territory</text>
  </g>

  <!-- ============================================ -->
  <!-- SEA MONSTER (Tradition Demands It)            -->
  <!-- ============================================ -->
  <g transform="translate(1350, 200)" opacity="0.4">
    <path d="M 0,0 C -10,-20 10,-40 20,-30 C 30,-20 40,-40 50,-25 C 60,-10 50,10 40,15 C 30,20 20,10 10,15 C 0,20 -5,10 0,0 Z" 
          fill="none" stroke="#3D2B1F" stroke-width="1" />
    <circle cx="15" cy="-25" r="2" fill="#3D2B1F" />
    <circle cx="35" cy="-30" r="2" fill="#3D2B1F" />
    <!-- Spout -->
    <path d="M 25,-30 C 20,-45 25,-50 25,-55" fill="none" stroke="#3D2B1F" stroke-width="0.8" />
    <path d="M 25,-50 C 20,-55 18,-52 20,-48" fill="none" stroke="#3D2B1F" stroke-width="0.5" />
    <path d="M 25,-52 C 30,-57 32,-54 30,-50" fill="none" stroke="#3D2B1F" stroke-width="0.5" />
    <!-- Label -->
    <text x="25" y="25" text-anchor="middle" font-family="serif" font-size="6" fill="#6B4226" font-style="italic">Hic sunt dracones</text>
  </g>

  <!-- ============================================ -->
  <!-- RHUMB LINE NOTE                               -->
  <!-- ============================================ -->
  <g transform="translate(1250, 850)">
    <text x="0" y="0" font-family="serif" font-size="7" fill="#6B4226" font-style="italic">
      Rhumb lines calculated from the Point of
    </text>
    <text x="0" y="12" font-family="serif" font-size="7" fill="#6B4226" font-style="italic">
      Maximum Indifference (800, 500).
    </text>
  </g>

</svg>
